<?xml version="1.0" standalone="no"?>
<!DOCTYPE svg PUBLIC "-//W3C//DTD SVG 20010904//EN"
 "http://www.w3.org/TR/2001/REC-SVG-20010904/DTD/svg10.dtd">
<svg version="1.0" xmlns="http://www.w3.org/2000/svg"
 width="256.000000pt" height="256.000000pt" viewBox="0 0 256.000000 256.000000"
 preserveAspectRatio="xMidYMid meet">
<metadata>
Created by potrace 1.14, written by Peter Selinger 2001-2017
</metadata>
<g transform="translate(0.000000,256.000000) scale(0.100000,-0.100000)"
fill="#000000" stroke="none">
<path d="M1830 2530 c0 -5 -4 -10 -9 -10 -5 0 -22 -5 -38 -12 -15 -6 -31 -11
-35 -10 -5 1 -8 -2 -8 -8 0 -5 -7 -7 -15 -4 -8 4 -15 1 -15 -7 0 -7 -3 -10 -6
-6 -3 3 -26 -3 -50 -13 -24 -11 -47 -19 -49 -19 -7 0 -53 -32 -76 -53 -10 -10
-19 -16 -19 -13 0 3 -22 -18 -50 -46 -27 -28 -50 -55 -50 -60 0 -5 -4 -9 -9
-9 -4 0 -7 11 -6 24 2 14 -3 27 -11 30 -8 3 -14 1 -14 -4 0 -6 -7 -10 -15 -10
-8 0 -15 -5 -15 -10 0 -6 -11 -15 -25 -20 -14 -5 -28 -17 -31 -25 -4 -8 -12
-15 -19 -15 -7 0 -18 -7 -25 -15 -7 -8 -16 -12 -21 -9 -5 3 -9 0 -9 -5 0 -17
-24 -13 -46 7 -27 24 -78 47 -68 30 6 -10 4 -10 -7 -2 -8 6 -23 11 -34 12 -46
3 -83 10 -95 17 -9 6 -11 4 -5 -6 7 -11 6 -12 -7 -2 -8 7 -27 14 -41 15 -14 1
-23 6 -21 10 5 8 -5 11 -39 11 -10 0 -15 2 -13 5 7 7 -42 52 -56 52 -6 0 -8
-9 -5 -20 3 -11 2 -22 -2 -25 -5 -2 -4 -28 1 -57 5 -29 10 -65 12 -80 2 -26 1
-27 -18 -13 -32 24 -100 53 -110 47 -4 -2 -2 -8 5 -13 8 -4 14 -12 14 -17 0
-9 30 -54 51 -76 9 -10 7 -16 -10 -26 -11 -8 -24 -13 -28 -12 -5 1 -8 -3 -8
-10 0 -6 -3 -8 -6 -5 -4 4 -20 -3 -36 -14 -16 -12 -35 -22 -42 -23 -17 -2 -40
-26 -49 -48 -3 -10 -12 -15 -20 -12 -8 3 -23 -6 -34 -20 -11 -14 -23 -23 -26
-20 -2 3 -11 -8 -18 -25 -7 -16 -17 -27 -21 -25 -4 3 -8 -1 -8 -8 0 -8 -9 -20
-19 -28 -11 -7 -18 -17 -15 -22 3 -4 -2 -11 -10 -14 -9 -3 -14 -10 -11 -15 3
-4 -4 -13 -15 -19 -11 -6 -18 -15 -15 -21 4 -5 2 -9 -3 -9 -5 0 -8 -11 -7 -25
2 -14 -1 -23 -6 -19 -5 3 -9 -7 -9 -21 0 -14 -7 -40 -16 -57 -9 -16 -11 -27
-5 -24 6 4 11 3 11 -1 0 -5 -9 -14 -20 -21 -17 -10 -18 -16 -10 -32 8 -16 8
-20 -2 -18 -7 2 -12 -5 -12 -14 1 -10 -2 -18 -6 -18 -5 0 -7 -11 -6 -25 2 -13
-1 -22 -5 -19 -5 3 -9 0 -9 -5 0 -6 6 -11 13 -12 6 0 3 -4 -8 -9 -11 -5 -14
-9 -7 -9 10 -1 10 -5 -2 -17 -11 -10 -13 -21 -8 -32 13 -26 13 -112 1 -112 -6
0 -1 -8 12 -18 17 -15 19 -21 9 -27 -9 -5 -11 -4 -6 3 4 7 2 12 -3 12 -15 0
-14 -13 2 -29 10 -11 9 -12 -1 -7 -9 6 -11 1 -8 -18 3 -14 1 -26 -3 -26 -11 0
-11 -43 0 -56 7 -9 5 -15 -8 -23 -10 -6 -12 -11 -5 -11 6 0 12 -5 12 -11 0 -5
-6 -7 -13 -3 -6 4 -3 -3 7 -15 20 -22 20 -22 0 -15 -17 7 -17 6 -5 -9 7 -9 10
-17 6 -17 -4 0 -1 -8 6 -17 8 -9 9 -14 3 -10 -7 4 -15 0 -18 -9 -4 -10 -2 -13
7 -8 9 6 9 4 -1 -8 -9 -12 -10 -18 -2 -23 8 -5 8 -11 -1 -21 -6 -8 -8 -14 -4
-14 4 0 1 -8 -6 -17 -12 -15 -12 -16 1 -8 13 8 13 7 1 -9 -13 -15 -13 -19 0
-27 11 -7 11 -9 0 -9 -11 0 -11 -3 0 -17 8 -9 9 -14 3 -10 -19 11 -25 -21 -8
-38 9 -8 11 -15 6 -15 -5 0 -9 -7 -9 -15 0 -8 4 -15 9 -15 5 0 6 -5 3 -10 -4
-6 -9 -8 -13 -6 -13 8 -5 -63 9 -81 9 -11 10 -14 2 -9 -17 10 -17 -16 0 -33 7
-9 7 -11 1 -8 -7 4 -15 0 -18 -9 -3 -8 -2 -13 3 -10 5 3 11 -1 15 -9 3 -8 1
-17 -5 -21 -6 -4 -5 -12 3 -22 10 -12 10 -14 0 -8 -6 4 -12 3 -12 -3 0 -5 5
-13 10 -16 8 -5 7 -11 -1 -21 -9 -11 -8 -14 2 -14 11 0 11 -2 -1 -10 -13 -9
-13 -10 0 -10 9 0 11 -3 5 -8 -12 -9 -16 -44 -4 -36 11 6 12 -10 2 -20 -11
-11 -12 -36 -2 -36 6 0 7 -6 3 -12 -14 -22 -11 -48 5 -49 12 0 11 -3 -4 -9
-11 -5 -15 -9 -9 -9 6 -1 14 -14 17 -29 3 -16 17 -34 31 -41 14 -8 22 -19 19
-24 -4 -6 0 -8 10 -4 11 4 17 1 17 -9 0 -8 4 -13 9 -9 5 3 12 1 16 -5 4 -6 11
-8 16 -5 5 4 9 1 9 -6 0 -7 10 -9 26 -6 14 2 31 -1 37 -7 14 -13 36 -14 55 -3
7 5 12 3 12 -5 0 -8 5 -6 11 5 8 14 14 15 31 6 15 -8 19 -8 14 0 -7 11 6 15
33 12 7 -2 10 2 6 8 -3 6 0 9 8 5 8 -3 18 0 22 6 5 8 11 8 21 -1 11 -9 14 -9
14 1 0 7 6 10 13 7 7 -3 24 1 37 8 13 7 31 10 39 7 9 -3 13 -2 9 3 -8 8 20 34
37 35 6 0 3 -5 -5 -11 -12 -9 -12 -10 3 -5 10 3 23 6 28 6 6 0 8 4 5 9 -7 11
13 9 33 -3 9 -6 12 -5 7 2 -6 10 0 12 52 13 12 0 20 4 17 10 -6 8 23 14 54 10
7 -2 10 2 7 7 -3 6 1 13 10 16 8 3 12 2 9 -4 -3 -6 -1 -10 4 -10 6 0 11 5 11
11 0 5 5 7 11 3 6 -3 15 0 20 7 7 12 9 12 9 0 0 -11 3 -11 17 0 13 11 15 11 9
1 -7 -11 -4 -11 12 -1 12 7 19 16 17 19 -2 3 11 5 28 4 18 -1 40 5 51 14 13
11 16 12 11 3 -6 -10 -4 -12 4 -7 7 5 10 15 6 23 -4 13 -3 14 10 3 14 -11 19
-7 16 12 0 4 6 5 14 2 8 -4 15 -1 15 5 0 6 5 11 11 11 5 0 7 -5 4 -11 -5 -6 2
-6 16 2 53 27 61 30 55 21 -3 -5 10 -2 29 6 19 9 31 20 28 25 -3 4 3 7 13 5
11 -2 18 2 17 9 -2 8 4 10 14 6 10 -4 14 -2 10 4 -4 6 3 10 16 9 12 0 21 4 20
11 -1 6 5 10 15 8 9 -1 25 5 34 14 53 49 60 55 53 41 -8 -13 -7 -13 11 0 10 8
27 23 37 35 10 11 16 14 12 8 -4 -9 -1 -11 9 -7 9 3 13 10 10 15 -3 5 1 9 9 9
8 0 17 7 21 15 3 8 12 15 21 15 8 0 15 6 15 14 0 8 5 18 12 22 7 5 8 3 3 -5
-4 -7 4 -5 19 4 14 10 26 22 26 27 0 5 4 7 9 4 5 -3 11 4 14 15 3 12 10 18 16
14 6 -3 11 0 11 8 0 8 7 17 15 21 8 3 15 13 15 21 0 9 5 13 10 10 6 -3 10 -2
10 3 0 5 9 19 20 32 11 12 17 26 14 31 -3 5 2 6 11 3 13 -5 15 -1 11 20 -3 15
-1 24 4 21 10 -6 22 23 14 36 -3 5 -2 8 3 7 4 -2 8 -1 8 2 0 3 8 17 17 32 11
16 13 29 7 37 -5 6 -6 9 -3 6 4 -3 13 7 21 21 15 30 17 46 3 24 -5 -8 -10 -10
-10 -4 0 6 3 14 7 18 4 3 8 16 10 28 2 12 7 25 11 28 7 4 8 26 2 33 -1 1 -3
15 -4 30 -2 21 1 27 11 22 8 -3 17 -5 19 -5 2 0 4 -6 4 -14 0 -8 12 -17 27
-21 15 -3 30 -11 33 -16 3 -4 15 -10 25 -12 11 -1 26 -7 34 -11 10 -7 12 -5 6
5 -6 11 -5 11 5 2 9 -8 19 -9 32 -2 10 5 18 6 18 1 0 -5 7 -9 15 -9 8 0 15 2
15 4 0 10 -27 28 -45 31 -53 9 -94 63 -99 131 -2 20 -7 44 -12 53 -22 38 -62
75 -87 82 -26 6 -27 9 -24 56 5 59 9 65 36 50 16 -8 21 -8 21 2 0 9 3 9 8 2 4
-6 18 -10 32 -10 14 0 31 -3 38 -8 6 -4 12 -4 12 1 0 10 334 8 350 -2 7 -4 16
-3 21 2 6 6 -5 25 -31 51 -22 23 -40 39 -40 35 0 -5 -4 -2 -9 5 -4 7 -24 14
-43 15 -20 1 -34 6 -31 10 5 8 -55 5 -72 -4 -6 -3 -21 -4 -35 -2 -37 5 -42 5
-80 -2 -19 -4 -41 -7 -47 -7 -7 -1 -13 -4 -13 -8 0 -4 -7 -7 -15 -7 -8 0 -15
4 -15 9 0 5 -4 6 -10 3 -18 -11 -49 -14 -55 -5 -3 5 -11 7 -18 4 -8 -3 -12 6
-12 25 0 16 3 27 7 25 4 -2 12 12 19 31 7 19 17 35 22 35 4 0 6 4 2 9 -3 5 1
16 9 23 13 14 26 45 25 62 0 5 4 12 11 16 6 4 13 13 14 21 14 63 20 79 28 79
6 0 7 7 4 16 -3 9 -3 21 1 27 10 16 14 77 5 77 -4 0 -22 -33 -41 -72 -19 -40
-45 -83 -58 -96 -13 -13 -20 -28 -17 -34 5 -7 2 -8 -5 -4 -8 5 -14 0 -18 -13
-3 -12 -9 -21 -14 -21 -14 0 -48 -33 -43 -41 2 -4 -5 -10 -16 -14 -11 -4 -18
-10 -15 -15 3 -4 -2 -11 -11 -14 -8 -3 -12 -2 -9 4 13 21 -9 9 -31 -17 -13
-16 -24 -24 -24 -19 0 5 -8 2 -17 -5 -12 -10 -15 -10 -9 -1 5 8 -1 15 -16 21
-13 6 -19 10 -14 10 5 1 3 8 -4 16 -6 8 -9 19 -6 24 4 5 2 12 -4 16 -6 4 -8
10 -5 14 2 5 1 22 -4 38 -7 23 -4 35 10 54 10 13 19 21 19 17 0 -5 9 1 20 12
12 12 18 25 15 30 -4 6 1 10 10 10 9 0 14 4 11 9 -3 5 0 14 8 20 8 7 20 32 27
56 7 25 16 45 19 45 3 0 7 8 8 18 1 9 3 31 5 47 2 17 6 35 8 40 8 14 5 88 -4
102 -4 6 -3 14 2 17 6 4 6 18 1 36 -5 17 -6 30 -3 30 3 0 1 6 -4 13 -10 11
-22 49 -30 91 -2 11 -8 25 -14 33 -6 7 -8 13 -4 13 4 0 2 7 -5 15 -16 19 -35
19 -55 -1 -9 -9 -19 -13 -23 -9 -4 4 4 15 17 26 13 10 19 19 15 19 -5 0 -1 5
9 11 18 11 24 39 7 39 -5 0 -10 -4 -10 -10z m-221 -263 c-20 -15 -73 -125 -74
-152 0 -11 -5 -26 -12 -32 -13 -15 -15 -160 -2 -168 4 -3 6 -12 3 -19 -6 -15
-40 -10 -51 7 -4 6 -1 7 6 2 7 -4 -3 15 -22 43 -20 27 -33 53 -30 56 4 3 1 6
-5 6 -7 0 -12 9 -12 20 0 11 -3 20 -7 20 -10 0 -8 49 3 75 15 38 83 107 96 99
4 -3 8 0 8 7 0 7 3 10 6 6 4 -3 23 5 43 18 37 26 82 36 50 12z m377 -825 c-4
-11 -18 -22 -31 -25 -30 -5 -31 -3 -4 35 23 32 46 26 35 -10z m-1746 -82 c0
-5 -5 -10 -11 -10 -5 0 -7 5 -4 10 3 6 8 10 11 10 2 0 4 -4 4 -10z"/>
</g>
</svg>
